<svg xmlns="http://www.w3.org/2000/svg" xmlns:xlink="http://www.w3.org/1999/xlink" preserveAspectRatio="xMidYMid" width="14.5" height="11.5" viewBox="0 0 29 23">
  <defs>
    <style>

      .cls-2 {
        fill: #f8f8f8;
      }
    </style>
  </defs>
  <path d="M28.200,0.424 C27.050,1.090 25.776,1.573 24.420,1.834 C23.337,0.706 21.790,-0.000 20.078,-0.000 C16.793,-0.000 14.130,2.600 14.130,5.807 C14.130,6.262 14.182,6.704 14.282,7.130 C9.338,6.887 4.955,4.576 2.020,1.063 C1.508,1.920 1.214,2.918 1.214,3.983 C1.214,5.996 2.266,7.774 3.862,8.815 C2.887,8.784 1.969,8.523 1.167,8.089 C1.167,8.113 1.167,8.137 1.167,8.161 C1.167,10.974 3.218,13.321 5.940,13.856 C5.440,13.988 4.915,14.059 4.371,14.059 C3.988,14.059 3.616,14.022 3.252,13.955 C4.011,16.261 6.206,17.941 8.810,17.988 C6.773,19.544 4.209,20.473 1.420,20.473 C0.938,20.473 0.466,20.445 -0.000,20.392 C2.634,22.039 5.763,23.000 9.121,23.000 C20.065,23.000 26.047,14.153 26.047,6.480 C26.047,6.229 26.044,5.977 26.032,5.728 C27.193,4.910 28.203,3.888 29.000,2.722 C27.933,3.185 26.787,3.496 25.583,3.636 C26.812,2.919 27.754,1.781 28.200,0.424 Z" id="path-1" class="cls-2" fill-rule="evenodd"/>
</svg>