<svg xmlns="http://www.w3.org/2000/svg" xmlns:xlink="http://www.w3.org/1999/xlink" preserveAspectRatio="xMidYMid" width="6.5" height="14" viewBox="0 0 13 28">
  <defs>
    <style>

      .cls-2 {
        fill: #f8f8f8;
      }
    </style>
  </defs>
  <path d="M2.786,28.000 C2.786,28.000 8.357,28.000 8.357,28.000 C8.357,28.000 8.357,20.270 8.357,14.000 C8.357,14.000 12.492,14.000 12.492,14.000 C12.492,14.000 13.000,8.400 13.000,8.400 C13.000,8.400 8.572,8.400 8.572,8.400 C8.572,8.400 8.572,6.161 8.572,6.161 C8.572,5.070 9.296,4.815 9.804,4.815 C10.312,4.815 12.929,4.815 12.929,4.815 C12.929,4.815 12.929,0.017 12.929,0.017 C12.929,0.017 8.625,-0.000 8.625,-0.000 C3.848,-0.000 2.763,3.578 2.763,5.869 C2.763,5.869 2.763,8.400 2.763,8.400 C2.763,8.400 -0.000,8.400 -0.000,8.400 C-0.000,8.400 -0.000,14.000 -0.000,14.000 C-0.000,14.000 2.786,14.000 2.786,14.000 C2.786,20.346 2.786,28.000 2.786,28.000 Z" id="path-1" class="cls-2" fill-rule="evenodd"/>
</svg>